<svg width="32" height="33" viewBox="0 0 32 33" fill="none" xmlns="http://www.w3.org/2000/svg">
<path fill-rule="evenodd" clip-rule="evenodd" d="M27.8245 21.9269H24.6013L23.3865 19.4808L22.1717 21.9269H18.9477H15.9995V14.1352C15.9838 13.487 15.4487 12.9691 14.7847 12.9691C14.1207 12.9691 13.5699 13.487 13.5699 14.1352V14.2162V21.9269H13.5047H10.3624V14.1187C10.3459 13.4712 9.81159 12.9526 9.14762 12.9526C8.48364 12.9526 7.93282 13.4712 7.93282 14.1187V21.9269H4.70961V11.0738H7.93282V12.3374H7.98154C8.28877 11.8675 8.67773 11.5437 9.1154 11.3489C9.55307 11.1713 10.0709 11.0738 10.6861 11.0738C11.2535 11.0738 11.7721 11.187 12.209 11.4298C12.6466 11.6569 13.0026 11.9806 13.2619 12.4018C13.6508 11.9484 14.072 11.6082 14.5419 11.3976C15.0118 11.187 15.5948 11.0738 16.2588 11.0738C16.6478 11.0738 17.0037 11.1383 17.3605 11.2357C17.7007 11.3489 18.0079 11.495 18.2672 11.6891C18.5265 11.884 18.7371 12.1268 18.899 12.4018C19.0609 12.6776 19.207 13.1632 19.207 13.52V13.9891V21.4083L21.7018 16.5004L18.9477 11.0738H22.1717L23.3865 13.52L24.6013 11.0738H27.8245L25.0712 16.5004L27.8245 21.9269ZM26.9987 1.5H5.00113C2.79784 1.5 1 3.29785 1 5.50115V27.4988C1 29.7022 2.79784 31.5 5.00113 31.5H26.9987C29.2012 31.5 31.0155 29.7022 30.9998 27.4988V5.50115C30.9998 3.29785 29.2012 1.5 26.9987 1.5Z" fill="white"/>
</svg>
