<svg width="32" height="32" viewBox="0 0 32 32" fill="none" xmlns="http://www.w3.org/2000/svg">
<path d="M18 4H6V6H18V4Z" fill="#535965"/>
<path d="M26 26H6V28H26V26Z" fill="#535965"/>
<path d="M10 27H8V21.75C8 19.36 9.27 17.13 11.3 15.85C9.27 14.57 8 12.34 8 9.95V5H10V9.95C10 11.85 11.2 13.67 12.99 14.49C13.53 14.74 13.87 15.26 13.87 15.85C13.87 16.44 13.54 16.96 13 17.21C11.21 18.03 10.01 19.85 10.01 21.75V27H10Z" fill="#535965"/>
<path d="M22.9902 27.0002V22" stroke="#535965" stroke-width="2"/>
<path d="M24 18C20.1431 14.1431 20.0737 7.78418 23.8474 4.01047M26.6684 15.3316C24.0971 12.7603 24.0555 8.94497 26.5713 6.42916" stroke="#535965" stroke-width="2" stroke-miterlimit="10"/>
</svg>
