<svg width="32" height="32" viewBox="0 0 32 32" fill="none" xmlns="http://www.w3.org/2000/svg">
<path d="M23 5H22C20.3431 5 19 6.34315 19 8V11C19 12.6569 20.3431 14 22 14H23C24.6569 14 26 12.6569 26 11V8C26 6.34315 24.6569 5 23 5Z" stroke="#146FF4" stroke-width="2" stroke-linejoin="round"/>
<path d="M12 5H11C9.34315 5 8 6.34315 8 8V11C8 12.6569 9.34315 14 11 14H12C13.6569 14 15 12.6569 15 11V8C15 6.34315 13.6569 5 12 5Z" stroke="#146FF4" stroke-width="2" stroke-linejoin="round"/>
<path d="M29 27V24.59C29 21.5 26.5 19 23.41 19H22" stroke="#146FF4" stroke-width="2" stroke-miterlimit="10"/>
<path d="M20 27V25C20 21.69 17.31 19 14 19H9C5.69 19 3 21.69 3 25V27H20Z" stroke="#146FF4" stroke-width="2" stroke-miterlimit="10"/>
</svg>
